<svg width="18" height="17" viewBox="0 0 18 17" fill="none" xmlns="http://www.w3.org/2000/svg">
<g clip-path="url(#clip0)">
<path d="M17.6764 6.49886C17.6746 6.47934 17.6706 6.46005 17.6644 6.44135C17.6603 6.42465 17.6547 6.40835 17.6476 6.39261C17.6393 6.37723 17.6294 6.36269 17.6181 6.34924C17.6068 6.33327 17.5936 6.31856 17.5789 6.30531C17.5742 6.30136 17.5722 6.29595 17.5671 6.292L14.7332 4.17569V1.98231C14.7332 1.51286 14.3374 1.13227 13.8492 1.13227H10.6557L9.37702 0.177662C9.06115 -0.0592208 8.61819 -0.0592208 8.30232 0.177662L7.02339 1.13227H3.82992C3.34169 1.13227 2.94587 1.51283 2.94587 1.98231V4.17572L0.112819 6.29203C0.107812 6.29601 0.10574 6.30139 0.101044 6.30534C0.086367 6.31856 0.07321 6.3333 0.0618486 6.34927C0.0505218 6.36272 0.0406453 6.37723 0.032392 6.39264C0.0252436 6.40835 0.0196493 6.42468 0.0156089 6.44138C0.00946204 6.45981 0.00542168 6.47881 0.00352237 6.49806C0.00352237 6.50401 0 6.50912 0 6.51507V16.1497C0.000414396 16.3299 0.0610544 16.5052 0.172976 16.6498C0.174737 16.6523 0.175048 16.6555 0.177085 16.6577C0.179157 16.66 0.183577 16.6625 0.186513 16.6656C0.352064 16.8751 0.609542 16.9986 0.883147 16.9997H16.796C17.0706 16.9989 17.3292 16.8748 17.4949 16.6642C17.4973 16.6614 17.5008 16.6606 17.5029 16.6577C17.505 16.6549 17.5052 16.6524 17.507 16.6498C17.6189 16.5052 17.6796 16.3299 17.68 16.1497V6.51586C17.68 6.50992 17.6768 6.50481 17.6764 6.49886ZM8.66271 0.624765C8.76562 0.546136 8.91135 0.546136 9.01425 0.624765L9.69407 1.13223H7.98493L8.66271 0.624765ZM0.957393 16.433L8.66274 10.678C8.76572 10.5995 8.91135 10.5995 9.01429 10.678L16.7217 16.433H0.957393ZM17.0906 15.9913L9.37702 10.2308C9.06108 9.99413 8.61826 9.99413 8.30232 10.2308L0.588442 15.9913V6.94739L5.4174 10.553C5.54607 10.6489 5.73124 10.6264 5.831 10.5027C5.93077 10.379 5.90735 10.2009 5.77868 10.105L0.872822 6.44218L2.94591 4.89311V7.08254C2.94591 7.23903 3.07786 7.36587 3.24058 7.36587C3.40333 7.36587 3.53525 7.239 3.53525 7.08254V1.98228C3.53525 1.82578 3.66716 1.69894 3.82992 1.69894H13.8491C14.0118 1.69894 14.1438 1.82578 14.1438 1.98228V7.08254C14.1438 7.23903 14.2757 7.36587 14.4384 7.36587C14.6012 7.36587 14.7331 7.239 14.7331 7.08254V4.89311L16.8062 6.44218L11.8918 10.1115C11.8072 10.1731 11.7636 10.2737 11.7777 10.3748C11.7917 10.4759 11.8611 10.562 11.9595 10.6001C12.0579 10.6383 12.17 10.6227 12.2531 10.5592L17.0906 6.94739V15.9913H17.0906Z" fill="#313A59"/>
<path d="M12.3751 6.79918V5.6658C12.3751 3.78793 10.7919 2.26562 8.83891 2.26562C6.88593 2.26562 5.30273 3.78793 5.30273 5.6658C5.30273 7.54366 6.88593 9.06597 8.83891 9.06597C9.00166 9.06597 9.13358 8.93913 9.13358 8.78263C9.13358 8.62614 9.00166 8.4993 8.83891 8.4993C7.21144 8.4993 5.89211 7.23071 5.89211 5.66583C5.89211 4.10095 7.21144 2.83236 8.83891 2.83236C10.4664 2.83236 11.7857 4.10095 11.7857 5.66583V6.79921C11.7857 7.1122 11.5218 7.36592 11.1963 7.36592C10.8708 7.36592 10.607 7.1122 10.607 6.79921V5.66583C10.607 5.50934 10.475 5.38249 10.3123 5.38249C10.1495 5.38249 10.0176 5.50934 10.0176 5.66583C10.0176 6.29177 9.48989 6.79921 8.83891 6.79921C8.18793 6.79921 7.6602 6.29177 7.6602 5.66583C7.6602 5.03989 8.18793 4.53245 8.83891 4.53245C9.00166 4.53245 9.13358 4.40561 9.13358 4.24911C9.13358 4.09262 9.00166 3.96578 8.83891 3.96578C8.04759 3.96408 7.35144 4.46817 7.13457 5.19993C6.9177 5.9317 7.23288 6.71291 7.90628 7.11256C8.57967 7.51222 9.44721 7.43299 10.0303 6.91855C10.0945 7.51776 10.6361 7.96331 11.2617 7.93146C11.8873 7.89959 12.3771 7.40158 12.3751 6.79918Z" fill="#313A59"/>
</g>
<defs>
<clipPath id="clip0">
<rect width="17.68" height="17" fill="white"/>
</clipPath>
</defs>
</svg>
