<svg width="17" height="17" viewBox="0 0 17 17" fill="none" xmlns="http://www.w3.org/2000/svg">
<g clip-path="url(#clip0)">
<path d="M8.49994 7.36706C9.5936 7.36706 10.4833 6.47711 10.4833 5.38372C10.4833 4.29034 9.5936 3.40039 8.49994 3.40039C7.40627 3.40039 6.5166 4.29034 6.5166 5.38372C6.5166 6.47711 7.40627 7.36706 8.49994 7.36706ZM8.49994 3.96706C9.28109 3.96706 9.9166 4.60257 9.9166 5.38372C9.9166 6.16487 9.28109 6.80039 8.49994 6.80039C7.71879 6.80039 7.08327 6.16487 7.08327 5.38372C7.08327 4.60257 7.71879 3.96706 8.49994 3.96706Z" fill="#313A59"/>
<path d="M8.4501 15.5145L12.7967 9.23666C14.427 7.06321 14.1913 3.49067 12.2921 1.59177C11.2659 0.56525 9.90133 0 8.4501 0C6.99886 0 5.63433 0.56525 4.6081 1.59148C2.70891 3.49038 2.47318 7.06293 4.09696 9.22788L8.4501 15.5145ZM5.00873 1.99212C5.92815 1.07298 7.15016 0.566667 8.4501 0.566667C9.75003 0.566667 10.972 1.07298 11.8915 1.99212C13.6056 3.706 13.8167 6.9326 12.3371 8.90516L8.4501 14.5188L4.55681 8.89666C3.08348 6.9326 3.29485 3.706 5.00873 1.99212Z" fill="#313A59"/>
<path d="M11.9332 12.1858C11.7773 12.1668 11.6368 12.2785 11.6186 12.434C11.6005 12.5896 11.7116 12.7304 11.8668 12.7485C14.8464 13.0993 16.4333 14.0445 16.4333 14.5922C16.4333 15.3611 13.4153 16.4338 8.5 16.4338C3.58473 16.4338 0.566667 15.3611 0.566667 14.5922C0.566667 14.0445 2.15362 13.0993 5.13315 12.7485C5.28842 12.7304 5.39948 12.5893 5.38135 12.434C5.36293 12.2785 5.2224 12.1663 5.06685 12.1858C2.08363 12.5371 0 13.5265 0 14.5922C0 15.789 2.91975 17.0005 8.5 17.0005C14.0802 17.0005 17 15.789 17 14.5922C17 13.5265 14.9164 12.5371 11.9332 12.1858Z" fill="#313A59"/>
</g>
<defs>
<clipPath id="clip0">
<rect width="17" height="17" fill="white"/>
</clipPath>
</defs>
</svg>
