<svg width="120" height="120" viewBox="0 0 120 120" fill="none" xmlns="http://www.w3.org/2000/svg">
<path d="M80.7503 58.8988L51.417 38.8988C51.0077 38.6215 50.4797 38.5908 50.0423 38.8215C49.6063 39.0521 49.333 39.5055 49.333 40.0001V80.0001C49.333 80.4948 49.6063 80.9481 50.0437 81.1788C50.2383 81.2828 50.453 81.3335 50.6663 81.3335C50.929 81.3335 51.1917 81.2548 51.417 81.1015L80.7503 61.1015C81.1143 60.8535 81.333 60.4415 81.333 60.0001C81.333 59.5588 81.1143 59.1468 80.7503 58.8988ZM51.9997 77.4761V42.5241L77.633 60.0001L51.9997 77.4761Z" fill="#F45E52"/>
<path d="M60 20C37.944 20 20 37.944 20 60C20 82.056 37.944 100 60 100C82.056 100 100 82.056 100 60C100 37.944 82.056 20 60 20ZM60 97.3333C39.4147 97.3333 22.6667 80.5853 22.6667 60C22.6667 39.4147 39.4147 22.6667 60 22.6667C80.5853 22.6667 97.3333 39.4147 97.3333 60C97.3333 80.5853 80.5853 97.3333 60 97.3333Z" fill="#F45E52"/>
<circle cx="60" cy="60" r="49.5" stroke="#F45E52"/>
<circle cx="60" cy="60" r="59.75" stroke="#F45E52" stroke-width="0.5"/>
</svg>
