<svg width="60" height="60" viewBox="0 0 60 60" fill="none" xmlns="http://www.w3.org/2000/svg">
<path d="M34.4062 27.0654C32.7878 27.0654 31.4712 28.382 31.4712 30.0004C31.4712 31.6187 32.7878 32.9354 34.4062 32.9354C36.0245 32.9354 37.3411 31.6187 37.3411 30.0004C37.3411 28.382 36.0245 27.0654 34.4062 27.0654Z" fill="white"/>
<path d="M36.3506 18.168V23.4605C37.8579 23.9093 39.1481 24.8655 40.0224 26.131L45.0563 24.4953C43.3444 21.1962 40.1441 18.7889 36.3506 18.168Z" fill="white"/>
<path d="M46.2599 28.1924L41.2245 29.8286C41.2259 29.8857 41.2289 29.9426 41.2289 30C41.2289 31.5582 40.7027 32.9951 39.8203 34.145L42.9293 38.424C45.0714 36.257 46.3961 33.2804 46.3961 30C46.3961 29.3857 46.3494 28.7821 46.2599 28.1924Z" fill="white"/>
<path d="M34.4063 4.40625H10.7565C9.68299 4.40625 8.81263 5.2766 8.81263 6.35016C8.81263 7.42372 9.68299 8.29407 10.7565 8.29407H20.8612C18.7293 9.62919 16.8071 11.2689 15.1565 13.1527H1.94391C0.870353 13.1528 0 14.0233 0 15.0968C0 16.1704 0.870353 17.0407 1.94391 17.0407H12.3443C10.1016 20.8442 8.81252 25.2741 8.81252 29.9999C8.81252 35.4988 10.5562 40.5982 13.5189 44.7746H8.00334C6.92978 44.7746 6.05943 45.645 6.05943 46.7185C6.05943 47.7921 6.92978 48.6624 8.00334 48.6624H16.9118C18.1239 49.7994 19.4464 50.8196 20.8612 51.7057H2.14442C1.07086 51.7057 0.200508 52.576 0.200508 53.6496C0.200508 54.7231 1.07086 55.5935 2.14442 55.5935H34.4063C48.5189 55.5935 60 44.1122 60 29.9998C60 15.8875 48.5188 4.40625 34.4063 4.40625ZM43.8491 42.757C43.8133 42.7872 43.7778 42.8177 43.7393 42.8455C43.6959 42.877 43.6515 42.9064 43.6066 42.9338C41.0093 44.7867 37.8329 45.8779 34.4063 45.8779C30.9797 45.8779 27.8035 44.7867 25.206 42.9338C25.161 42.9064 25.1167 42.877 25.0734 42.8455C25.0349 42.8175 24.9994 42.787 24.9636 42.757C21.0618 39.8613 18.5282 35.2211 18.5282 29.9999C18.5282 21.2447 25.6511 14.1218 34.4063 14.1218C43.1615 14.1218 50.2844 21.2447 50.2844 29.9999C50.2844 35.2212 47.751 39.8613 43.8491 42.757Z" fill="white"/>
<path d="M23.7563 24.4953L28.7902 26.131C29.6647 24.8656 30.9548 23.9095 32.4621 23.4605V18.168C28.6687 18.7891 25.4685 21.1962 23.7563 24.4953Z" fill="white"/>
<path d="M36.677 36.4326C35.9662 36.6843 35.2022 36.8227 34.4061 36.8227C33.6101 36.8227 32.8459 36.6843 32.1351 36.4326L29.0254 40.7125C30.6445 41.529 32.4724 41.9898 34.4061 41.9898C36.3398 41.9898 38.1677 41.5291 39.7867 40.7125L36.677 36.4326Z" fill="white"/>
<path d="M27.5834 30C27.5834 29.9426 27.5862 29.8857 27.5876 29.8286L22.5522 28.1924C22.4627 28.7821 22.416 29.3857 22.416 30C22.416 33.2806 23.7408 36.2571 25.8829 38.4243L28.9919 34.145C28.1096 32.9952 27.5834 31.5582 27.5834 30Z" fill="white"/>
</svg>
