<svg width="60" height="60" viewBox="0 0 60 60" fill="none" xmlns="http://www.w3.org/2000/svg">
<g clip-path="url(#clip0)">
<path d="M16.9141 44.9277V58.2418C16.9141 58.89 17.2711 59.4855 17.8424 59.7918C18.4142 60.0975 19.1077 60.0641 19.6469 59.7043L29.969 52.8232L40.2907 59.7043C40.8304 60.0641 41.5239 60.0975 42.0952 59.7918C42.6669 59.4855 43.0235 58.89 43.0235 58.2418V44.9277C39.1852 47.1676 34.7243 48.453 29.969 48.453C25.2133 48.453 20.7529 47.1676 16.9141 44.9277V44.9277Z" fill="white"/>
<path d="M22.3125 22.3438H26.3285V30.1248H22.3125V22.3438Z" fill="white"/>
<path d="M29.9689 0C17.5795 0 7.5 10.0795 7.5 22.4689C7.5 34.8578 17.5795 44.9377 29.9689 44.9377C42.3582 44.9377 52.4373 34.8582 52.4373 22.4689C52.4373 10.0795 42.3582 0 29.9689 0V0ZM43.0234 28.1172C43.0234 31.1627 40.5455 33.6406 37.5 33.6406H20.5545C19.584 33.6406 18.7967 32.8537 18.7967 31.8828V20.5861C18.7967 19.6152 19.584 18.8283 20.5545 18.8283H26.3283V11.1717C26.3283 10.2013 27.1152 9.41391 28.0861 9.41391H29.9689C33.0254 9.41391 35.4922 11.8867 35.4922 14.9373V15.0632L37.5037 15.0645C40.5473 15.0659 43.0234 17.5433 43.0234 20.5879V28.1172Z" fill="white"/>
<path d="M37.5017 18.5799L33.7334 18.5776C32.7629 18.5771 31.9765 17.7902 31.9765 16.8198V14.9374C31.9765 13.8264 31.0783 12.9297 29.9687 12.9297H29.8438V30.1247H37.4998C38.6067 30.1247 39.5076 29.2242 39.5076 28.1169V20.5876C39.5076 19.4807 38.6081 18.5803 37.5017 18.5799V18.5799Z" fill="white"/>
</g>
<defs>
<clipPath id="clip0">
<rect width="60" height="60" fill="white"/>
</clipPath>
</defs>
</svg>
