<svg width="60" height="60" viewBox="0 0 60 60" fill="none" xmlns="http://www.w3.org/2000/svg">
<circle cx="30" cy="30" r="29.75" stroke="#F45E52" stroke-width="0.5" stroke-miterlimit="1.13789" stroke-linejoin="bevel" stroke-dasharray="4 4"/>
<path d="M30 0C37.9565 9.48802e-08 45.5871 3.16071 51.2132 8.7868C56.8393 14.4129 60 22.0435 60 30C60 37.9565 56.8393 45.5871 51.2132 51.2132C45.5871 56.8393 37.9565 60 30 60L30 56.6184C37.0597 56.6184 43.8302 53.814 48.8221 48.8221C53.814 43.8302 56.6184 37.0596 56.6184 30C56.6184 22.9403 53.814 16.1698 48.8221 11.1779C43.8302 6.18599 37.0597 3.38156 30 3.38156L30 0Z" fill="#F45E52"/>
<path d="M41.1109 41H23.7229V37.688C28.7389 33.896 32.1469 31.088 33.9469 29.264C35.7709 27.416 36.6829 25.676 36.6829 24.044C36.6829 22.868 36.2509 21.968 35.3869 21.344C34.5469 20.696 33.5269 20.372 32.3269 20.372C29.6869 20.372 27.5269 21.332 25.8469 23.252L23.3989 20.48C24.4309 19.232 25.7269 18.284 27.2869 17.636C28.8709 16.964 30.5269 16.628 32.2549 16.628C34.7029 16.628 36.7669 17.288 38.4469 18.608C40.1269 19.928 40.9669 21.74 40.9669 24.044C40.9669 26.108 40.1029 28.16 38.3749 30.2C36.6469 32.24 34.0069 34.604 30.4549 37.292H41.1109V41Z" fill="#303343"/>
</svg>
