<svg width="64" height="60" viewBox="0 0 64 60" fill="none" xmlns="http://www.w3.org/2000/svg">
<path d="M62.6464 23.991C62.9255 25.2928 63.1158 26.6251 63.2108 27.9822L62.9614 27.9997C63.0077 28.6607 63.0312 29.3277 63.0312 30C63.0312 30.6723 63.0077 31.3393 62.9614 32.0004L63.2108 32.0178C63.1158 33.3749 62.9255 34.7073 62.6464 36.009L62.402 35.9566C62.1203 37.2699 61.7474 38.5519 61.2897 39.7962L61.5243 39.8825C61.0584 41.1494 60.5053 42.3775 59.872 43.5605L59.6516 43.4425C59.0218 44.6189 58.3118 45.7504 57.5285 46.8305L57.7309 46.9773C56.9424 48.0645 56.0804 49.0999 55.1515 50.0772L54.9703 49.9049C54.0542 50.8687 53.0725 51.7755 52.0319 52.6189L52.1893 52.8131C51.1493 53.6561 50.0509 54.4362 48.9008 55.1474L48.7693 54.9347C47.6409 55.6324 46.4622 56.2631 45.2395 56.821L45.3433 57.0485C44.1292 57.6024 42.8722 58.085 41.5781 58.4905L41.5034 58.252C40.2417 58.6473 38.9446 58.969 37.6177 59.2114L37.6626 59.4573C36.3549 59.6962 35.0185 59.8588 33.6588 59.94L33.6439 59.6904C32.9815 59.7299 32.3136 59.75 31.6406 59.75C30.9677 59.75 30.2997 59.7299 29.6373 59.6904L29.6224 59.94C28.2627 59.8588 26.9263 59.6962 25.6186 59.4573L25.6635 59.2114C24.3366 58.969 23.0395 58.6473 21.7779 58.252L21.7031 58.4905C20.4091 58.085 19.152 57.6024 17.938 57.0485L18.0417 56.821C16.819 56.2631 15.6403 55.6324 14.5119 54.9347L14.3804 55.1473C13.2303 54.4362 12.132 53.6561 11.0919 52.8131L11.2494 52.6189C10.2087 51.7755 9.22706 50.8687 8.31098 49.9049L8.12978 50.0772C7.2009 49.0999 6.33883 48.0645 5.55039 46.9773L5.75277 46.8305C4.96944 45.7504 4.25948 44.6189 3.62966 43.4425L3.40926 43.5605C2.77593 42.3775 2.22289 41.1494 1.75691 39.8825L1.99154 39.7962C1.53385 38.5519 1.16092 37.2699 0.879298 35.9566L0.634854 36.009C0.355723 34.7072 0.165494 33.3749 0.0704392 32.0178L0.319828 32.0003C0.273524 31.3393 0.25 30.6723 0.25 30C0.25 29.3277 0.273524 28.6607 0.319829 27.9997L0.0704396 27.9822C0.165494 26.6251 0.355724 25.2928 0.634855 23.991L0.879298 24.0434C1.16092 22.7301 1.53385 21.4481 1.99154 20.2038L1.75691 20.1175C2.22288 18.8506 2.77593 17.6225 3.40926 16.4395L3.62966 16.5575C4.25948 15.3811 4.96944 14.2496 5.75277 13.1695L5.55039 13.0227C6.33883 11.9355 7.2009 10.9001 8.12978 9.92284L8.31098 10.0951C9.22707 9.1313 10.2087 8.22453 11.2494 7.38108L11.0919 7.18686C12.132 6.34391 13.2303 5.56377 14.3804 4.85265L14.5119 5.06529C15.6403 4.36761 16.819 3.73686 18.0417 3.17898L17.938 2.95154C19.152 2.39763 20.4091 1.91503 21.7031 1.50948L21.7779 1.74804C23.0395 1.35265 24.3366 1.03104 25.6635 0.788621L25.6186 0.542691C26.9263 0.303771 28.2627 0.141193 29.6224 0.0600421L29.6373 0.309598C30.2997 0.270066 30.9677 0.25 31.6406 0.25C32.3136 0.25 32.9815 0.270066 33.6439 0.309598L33.6588 0.0600424C35.0185 0.141194 36.3549 0.303771 37.6627 0.542692L37.6177 0.788621C38.9446 1.03105 40.2417 1.35265 41.5034 1.74804L41.5781 1.50948C42.8722 1.91503 44.1292 2.39763 45.3433 2.95154L45.2395 3.17898C46.4622 3.73686 47.6409 4.36762 48.7693 5.06529L48.9008 4.85265C50.0509 5.56378 51.1493 6.34391 52.1893 7.18686L52.0319 7.38108C53.0725 8.22453 54.0542 9.13131 54.9703 10.0951L55.1515 9.92284C56.0804 10.9001 56.9424 11.9355 57.7309 13.0227L57.5285 13.1695C58.3118 14.2496 59.0218 15.3811 59.6516 16.5575L59.872 16.4395C60.5053 17.6225 61.0584 18.8506 61.5243 20.1175L61.2897 20.2038C61.7474 21.4481 62.1203 22.7301 62.402 24.0434L62.6464 23.991Z" stroke="#F45E52" stroke-width="0.5" stroke-miterlimit="1.13789" stroke-linejoin="bevel" stroke-dasharray="4 4"/>
<path d="M31.6406 0C35.7957 4.69799e-08 39.9102 0.775973 43.749 2.28361C47.5878 3.79126 51.0758 6.00104 54.0139 8.7868C56.952 11.5726 59.2827 14.8797 60.8728 18.5195C62.4628 22.1593 63.2813 26.0603 63.2812 30L59.7148 30C59.7148 26.5044 58.9886 23.0431 57.5778 19.8136C56.1669 16.5841 54.099 13.6497 51.492 11.1779C48.8851 8.70617 45.7902 6.74547 42.3841 5.40776C38.978 4.07006 35.3274 3.38156 31.6406 3.38156L31.6406 0Z" fill="#F45E52"/>
<path d="M35.3818 41H31.1698V22.46L27.2458 26.528L24.7978 23.972L31.7098 16.988H35.3818V41Z" fill="#303343"/>
</svg>
