<svg width="60" height="52" viewBox="0 0 60 52" fill="none" xmlns="http://www.w3.org/2000/svg">
<path d="M34.4063 0.40625H10.7565C9.68299 0.40625 8.81263 1.2766 8.81263 2.35016C8.81263 3.42372 9.68299 4.29407 10.7565 4.29407H20.8612C18.7293 5.62919 16.8071 7.26888 15.1565 9.15267H1.94391C0.870353 9.15279 0 10.0233 0 11.0968C0 12.1704 0.870353 13.0407 1.94391 13.0407H12.3443C10.1016 16.8442 8.81252 21.2741 8.81252 25.9999C8.81252 31.4988 10.5562 36.5982 13.5189 40.7746H8.00334C6.92978 40.7746 6.05943 41.645 6.05943 42.7185C6.05943 43.7921 6.92978 44.6624 8.00334 44.6624H16.9118C18.1239 45.7994 19.4464 46.8196 20.8612 47.7057H2.14442C1.07086 47.7057 0.200508 48.576 0.200508 49.6496C0.200508 50.7231 1.07086 51.5935 2.14442 51.5935H34.4063C48.5189 51.5935 60 40.1121 60 25.9998C60 11.8875 48.5188 0.40625 34.4063 0.40625ZM43.8491 38.757C43.8133 38.7872 43.7778 38.8177 43.7393 38.8455C43.6959 38.877 43.6515 38.9064 43.6066 38.9338C41.0093 40.7867 37.8329 41.8779 34.4063 41.8779C30.9797 41.8779 27.8035 40.7867 25.206 38.9338C25.161 38.9064 25.1167 38.877 25.0734 38.8455C25.0349 38.8175 24.9994 38.787 24.9636 38.757C21.0618 35.8613 18.5282 31.2211 18.5282 25.9999C18.5282 17.2447 25.6511 10.1218 34.4063 10.1218C43.1615 10.1218 50.2844 17.2447 50.2844 25.9999C50.2844 31.2212 47.751 35.8613 43.8491 38.757Z" fill="white"/>
</svg>
