<svg width="51" height="60" viewBox="0 0 51 60" fill="none" xmlns="http://www.w3.org/2000/svg">
<path d="M50.4334 15.4439C50.3616 13.8655 50.3616 12.3587 50.3616 10.852C50.3616 9.63229 49.4289 8.69955 48.2091 8.69955C39.2405 8.69955 32.4244 6.11659 26.7562 0.591928C25.8952 -0.197309 24.6038 -0.197309 23.7428 0.591928C18.0746 6.11659 11.2585 8.69955 2.28986 8.69955C1.07013 8.69955 0.137396 9.63229 0.137396 10.852C0.137396 12.3587 0.137396 13.8655 0.065647 15.4439C-0.221349 30.5112 -0.651843 51.1749 24.532 59.8565L25.2495 60L25.967 59.8565C51.0791 51.1749 50.7204 30.583 50.4334 15.4439ZM23.5275 36.3229C23.097 36.6816 22.5948 36.8969 22.0208 36.8969H21.9491C21.3751 36.8969 20.8011 36.6099 20.4423 36.1794L13.7697 28.7892L16.9984 25.9193L22.236 31.7309L33.8594 20.6816L36.8011 23.8386L23.5275 36.3229Z" fill="white"/>
</svg>
