<svg width="159" height="159" viewBox="0 0 159 159" fill="none" xmlns="http://www.w3.org/2000/svg">
<path d="M109.312 0H49.6875C22.2501 0 0 22.2501 0 49.6875V109.312C0 136.75 22.2501 159 49.6875 159H109.312C136.75 159 159 136.75 159 109.312V49.6875C159 22.2501 136.75 0 109.312 0ZM144.094 109.312C144.094 128.492 128.492 144.094 109.312 144.094H49.6875C30.5081 144.094 14.9062 128.492 14.9062 109.312V49.6875C14.9062 30.5081 30.5081 14.9062 49.6875 14.9062H109.312C128.492 14.9062 144.094 30.5081 144.094 49.6875V109.312Z" fill="white"/>
<path d="M79.5 39.75C57.5481 39.75 39.75 57.5481 39.75 79.5C39.75 101.452 57.5481 119.25 79.5 119.25C101.452 119.25 119.25 101.452 119.25 79.5C119.25 57.5481 101.452 39.75 79.5 39.75ZM79.5 104.344C65.8061 104.344 54.6562 93.1939 54.6562 79.5C54.6562 65.7962 65.8061 54.6562 79.5 54.6562C93.1939 54.6562 104.344 65.7962 104.344 79.5C104.344 93.1939 93.1939 104.344 79.5 104.344Z" fill="white"/>
<path d="M122.231 42.0655C125.157 42.0655 127.528 39.6941 127.528 36.7689C127.528 33.8436 125.157 31.4722 122.231 31.4722C119.306 31.4722 116.935 33.8436 116.935 36.7689C116.935 39.6941 119.306 42.0655 122.231 42.0655Z" fill="white"/>
</svg>
