<svg width="17" height="17" viewBox="0 0 17 17" fill="none" xmlns="http://www.w3.org/2000/svg">
<path d="M8.5 0C3.8131 0 0 3.8131 0 8.5C0 13.1869 3.8131 17 8.5 17C13.1869 17 17 13.1869 17 8.5C17 3.8131 13.1869 0 8.5 0ZM8.5 16.4333C4.12562 16.4333 0.566667 12.8744 0.566667 8.5C0.566667 4.12562 4.12562 0.566667 8.5 0.566667C12.8744 0.566667 16.4333 4.12562 16.4333 8.5C16.4333 12.8744 12.8744 16.4333 8.5 16.4333Z" fill="#313A59"/>
<path d="M8.50026 1.7002C8.34386 1.7002 8.21693 1.82685 8.21693 1.98353V8.5002H3.96693C3.81053 8.5002 3.68359 8.62685 3.68359 8.78353C3.68359 8.94021 3.81053 9.06686 3.96693 9.06686H8.50026C8.65666 9.06686 8.78359 8.94021 8.78359 8.78353V1.98353C8.78359 1.82685 8.65666 1.7002 8.50026 1.7002Z" fill="#313A59"/>
</svg>
