<svg width="60" height="60" viewBox="0 0 60 60" fill="none" xmlns="http://www.w3.org/2000/svg">
<circle cx="30" cy="30" r="29.75" stroke="#F45E52" stroke-width="0.5" stroke-miterlimit="1.13789" stroke-linejoin="bevel" stroke-dasharray="4 4"/>
<path d="M30 0C35.9334 7.07556e-08 41.7336 1.75947 46.6671 5.05591C51.6006 8.35235 55.4458 13.0377 57.7164 18.5195C59.987 24.0013 60.5811 30.0333 59.4236 35.8527C58.266 41.6721 55.4088 47.0176 51.2132 51.2132C47.0176 55.4088 41.6721 58.266 35.8527 59.4236C30.0333 60.5811 24.0013 59.987 18.5195 57.7164C13.0377 55.4458 8.35235 51.6006 5.05591 46.6671C1.75947 41.7336 -1.41511e-07 35.9334 0 30L3.38156 30C3.38156 35.2646 4.9427 40.411 7.86757 44.7884C10.7924 49.1658 14.9497 52.5775 19.8136 54.5922C24.6774 56.6069 30.0295 57.1341 35.193 56.107C40.3565 55.0799 45.0994 52.5447 48.8221 48.8221C52.5447 45.0994 55.0799 40.3565 56.107 35.193C57.1341 30.0295 56.6069 24.6774 54.5922 19.8136C52.5775 14.9497 49.1658 10.7924 44.7884 7.86757C40.411 4.9427 35.2646 3.38156 30 3.38156L30 0Z" fill="#F45E52"/>
<path d="M28.936 41.432C26.896 41.432 25.084 41.072 23.5 40.352C21.94 39.632 20.728 38.696 19.864 37.544L22.132 34.772C22.9 35.66 23.884 36.368 25.084 36.896C26.284 37.424 27.52 37.688 28.792 37.688C30.352 37.688 31.576 37.364 32.464 36.716C33.352 36.044 33.796 35.144 33.796 34.016C33.796 31.76 32.02 30.632 28.468 30.632C26.86 30.632 25.936 30.644 25.696 30.668V26.888C25.984 26.912 26.908 26.924 28.468 26.924C29.956 26.924 31.144 26.66 32.032 26.132C32.944 25.604 33.4 24.812 33.4 23.756C33.4 22.676 32.944 21.848 32.032 21.272C31.12 20.672 29.956 20.372 28.54 20.372C26.188 20.372 24.124 21.26 22.348 23.036L20.188 20.408C22.324 17.888 25.24 16.628 28.936 16.628C31.552 16.628 33.652 17.216 35.236 18.392C36.82 19.544 37.612 21.116 37.612 23.108C37.612 24.596 37.084 25.832 36.028 26.816C34.996 27.776 33.784 28.376 32.392 28.616C33.76 28.736 35.032 29.312 36.208 30.344C37.384 31.376 37.972 32.744 37.972 34.448C37.972 36.512 37.144 38.192 35.488 39.488C33.856 40.784 31.672 41.432 28.936 41.432Z" fill="#303343"/>
</svg>
